<mxfile host="app.diagrams.net" modified="2021-06-22T13:00:44.474Z" agent="5.0 (Windows NT 10.0; Win64; x64) AppleWebKit/537.36 (KHTML, like Gecko) Chrome/91.0.4472.106 Safari/537.36" etag="C5S3ZYwYGqkDwfPrjzC5" version="14.5.1" type="github">
  <diagram id="7p46W-EN9GYlPAzoYcba" name="Page-1">
    <mxGraphModel dx="844" dy="598" grid="1" gridSize="10" guides="1" tooltips="1" connect="1" arrows="1" fold="1" page="1" pageScale="1" pageWidth="827" pageHeight="1169" math="0" shadow="0">
      <root>
        <mxCell id="0" />
        <mxCell id="1" parent="0" />
        <mxCell id="sO5AbAzET7fi1nhG9wPH-10" value="" style="endArrow=classic;html=1;entryX=1;entryY=0.5;entryDx=0;entryDy=0;" edge="1" parent="1" target="sO5AbAzET7fi1nhG9wPH-5">
          <mxGeometry width="50" height="50" relative="1" as="geometry">
            <mxPoint x="255" y="110" as="sourcePoint" />
            <mxPoint x="440" y="170" as="targetPoint" />
            <Array as="points">
              <mxPoint x="255" y="260" />
            </Array>
          </mxGeometry>
        </mxCell>
        <mxCell id="sO5AbAzET7fi1nhG9wPH-1" value="Pega&lt;br&gt;(UMB2BPRD)&lt;br&gt;Oracle DB" style="rounded=0;whiteSpace=wrap;html=1;" vertex="1" parent="1">
          <mxGeometry x="40" y="80" width="120" height="60" as="geometry" />
        </mxCell>
        <mxCell id="sO5AbAzET7fi1nhG9wPH-20" style="edgeStyle=orthogonalEdgeStyle;rounded=0;orthogonalLoop=1;jettySize=auto;html=1;entryX=0.5;entryY=0;entryDx=0;entryDy=0;" edge="1" parent="1" source="sO5AbAzET7fi1nhG9wPH-2" target="sO5AbAzET7fi1nhG9wPH-16">
          <mxGeometry relative="1" as="geometry" />
        </mxCell>
        <mxCell id="sO5AbAzET7fi1nhG9wPH-2" value="SIFT RTM&lt;br&gt;(Oracle DB)" style="rounded=0;whiteSpace=wrap;html=1;" vertex="1" parent="1">
          <mxGeometry x="354" y="80" width="120" height="60" as="geometry" />
        </mxCell>
        <mxCell id="sO5AbAzET7fi1nhG9wPH-3" value="" style="endArrow=classic;html=1;entryX=0;entryY=0.5;entryDx=0;entryDy=0;" edge="1" parent="1" source="sO5AbAzET7fi1nhG9wPH-1" target="sO5AbAzET7fi1nhG9wPH-2">
          <mxGeometry width="50" height="50" relative="1" as="geometry">
            <mxPoint x="160" y="120" as="sourcePoint" />
            <mxPoint x="210" y="70" as="targetPoint" />
          </mxGeometry>
        </mxCell>
        <mxCell id="sO5AbAzET7fi1nhG9wPH-5" value="/streamslz/.../processed" style="rounded=0;whiteSpace=wrap;html=1;" vertex="1" parent="1">
          <mxGeometry x="40" y="230" width="150" height="60" as="geometry" />
        </mxCell>
        <mxCell id="sO5AbAzET7fi1nhG9wPH-11" value="Redis DB" style="rounded=0;whiteSpace=wrap;html=1;" vertex="1" parent="1">
          <mxGeometry x="600" y="80" width="120" height="60" as="geometry" />
        </mxCell>
        <mxCell id="sO5AbAzET7fi1nhG9wPH-12" value="" style="endArrow=classic;html=1;exitX=1;exitY=0.5;exitDx=0;exitDy=0;entryX=0;entryY=0.5;entryDx=0;entryDy=0;" edge="1" parent="1" source="sO5AbAzET7fi1nhG9wPH-2" target="sO5AbAzET7fi1nhG9wPH-11">
          <mxGeometry width="50" height="50" relative="1" as="geometry">
            <mxPoint x="390" y="220" as="sourcePoint" />
            <mxPoint x="440" y="170" as="targetPoint" />
            <Array as="points" />
          </mxGeometry>
        </mxCell>
        <mxCell id="sO5AbAzET7fi1nhG9wPH-13" value="Only UCG Data&lt;br&gt;" style="text;html=1;strokeColor=none;fillColor=none;align=center;verticalAlign=middle;whiteSpace=wrap;rounded=0;" vertex="1" parent="1">
          <mxGeometry x="480" y="90" width="110" height="20" as="geometry" />
        </mxCell>
        <mxCell id="sO5AbAzET7fi1nhG9wPH-14" value="UCG File Dump" style="rounded=0;whiteSpace=wrap;html=1;" vertex="1" parent="1">
          <mxGeometry x="600" y="230" width="120" height="60" as="geometry" />
        </mxCell>
        <mxCell id="sO5AbAzET7fi1nhG9wPH-15" value="" style="endArrow=classic;html=1;exitX=0.5;exitY=1;exitDx=0;exitDy=0;entryX=0.5;entryY=0;entryDx=0;entryDy=0;" edge="1" parent="1" source="sO5AbAzET7fi1nhG9wPH-11" target="sO5AbAzET7fi1nhG9wPH-14">
          <mxGeometry width="50" height="50" relative="1" as="geometry">
            <mxPoint x="390" y="190" as="sourcePoint" />
            <mxPoint x="440" y="140" as="targetPoint" />
          </mxGeometry>
        </mxCell>
        <mxCell id="sO5AbAzET7fi1nhG9wPH-16" value="&lt;font style=&quot;font-size: 14px&quot;&gt;OfferCatalogue Table&lt;br&gt;ContactSync Table&lt;/font&gt;" style="text;html=1;strokeColor=none;fillColor=none;align=center;verticalAlign=middle;whiteSpace=wrap;rounded=0;" vertex="1" parent="1">
          <mxGeometry x="354" y="225" width="160" height="70" as="geometry" />
        </mxCell>
        <mxCell id="sO5AbAzET7fi1nhG9wPH-21" value="Data sent to SIFT is backed up as .dsv files on GPFS" style="text;html=1;strokeColor=none;fillColor=none;align=center;verticalAlign=middle;whiteSpace=wrap;rounded=0;" vertex="1" parent="1">
          <mxGeometry x="170" y="160" width="150" height="60" as="geometry" />
        </mxCell>
        <mxCell id="sO5AbAzET7fi1nhG9wPH-22" value="&lt;font style=&quot;font-size: 24px&quot;&gt;1&lt;/font&gt;" style="ellipse;whiteSpace=wrap;html=1;labelBackgroundColor=none;fillColor=#FF9999;" vertex="1" parent="1">
          <mxGeometry x="95" y="295" width="40" height="35" as="geometry" />
        </mxCell>
        <mxCell id="sO5AbAzET7fi1nhG9wPH-23" value="&lt;font style=&quot;font-size: 24px&quot;&gt;2&lt;/font&gt;" style="ellipse;whiteSpace=wrap;html=1;labelBackgroundColor=none;fillColor=#d5e8d4;" vertex="1" parent="1">
          <mxGeometry x="414" y="290" width="40" height="35" as="geometry" />
        </mxCell>
        <mxCell id="sO5AbAzET7fi1nhG9wPH-24" value="&lt;font style=&quot;font-size: 24px&quot;&gt;3&lt;/font&gt;" style="ellipse;whiteSpace=wrap;html=1;labelBackgroundColor=none;fillColor=#ffe6cc;" vertex="1" parent="1">
          <mxGeometry x="640" y="295" width="40" height="35" as="geometry" />
        </mxCell>
      </root>
    </mxGraphModel>
  </diagram>
</mxfile>
